# xmcd
#
# Track frame offsets: 
#        150
#        9852
#        20642
#        32267
#        41810
#        53487
#        66737
#        79390
#        101267
#        111190
#        123892
#        135907
#        145022
#        156075
#        171920
#        183495
#        195980
#        205480
#        222005
#        233140
#        243857
#        255080
#        274562
#        286555
#        299107
#        311285
#        325782
#
# Disc length: 4511 seconds
#
# Revision: 2
# Processed by: cddbd v1.5.2PL0 Copyright (c) Steve Scherf et al.
# Submitted via: ExactAudioCopyFreeDBPlugin 1.0
#
DISCID=6c119d1b
DTITLE=Mac Wiseman - 'Tis Sweet To Be Remembered
DYEAR=2003
DGENRE=Bluegrass
TTITLE0=Jimmy Brown, The Newsboy
TTITLE1=Driftwood On The River
TTITLE2=When It's Lamplighting Time In The Valley
TTITLE3=Little Moses
TTITLE4=The Baggage Catch Ahead
TTITLE5=The Girl In The Blue Velvet Band
TTITLE6=I've Got No Use For The Women
TTITLE7=Barbara Allen
TTITLE8=The Preacher And The Bear
TTITLE9=Just Tell Them That You Saw Me
TTITLE10=Wildwood Flower
TTITLE11=Wreck Of The Old '97
TTITLE12=The Ballad Of Davy Crockett
TTITLE13=Darling Nellie Gray
TTITLE14=The Old Lamlighter
TTITLE15=Tom Dooley
TTITLE16=He's Got The Whole World In His Hands
TTITLE17=Old Shep
TTITLE18=Sixteen Tons
TTITLE19=I'm Movin' On
TTITLE20=The Fool
TTITLE21=El Paso
TTITLE22=Running Bear
TTITLE23=The Three Bells
TTITLE24=There's A Star Spangled Banner Waving Somewhere
TTITLE25=Lewt The Lower Lights Be Burning
TTITLE26=In The Sweet By and By
EXTD=
EXTT0=
EXTT1=
EXTT2=
EXTT3=
EXTT4=
EXTT5=
EXTT6=
EXTT7=
EXTT8=
EXTT9=
EXTT10=
EXTT11=
EXTT12=
EXTT13=
EXTT14=
EXTT15=
EXTT16=
EXTT17=
EXTT18=
EXTT19=
EXTT20=
EXTT21=
EXTT22=
EXTT23=
EXTT24=
EXTT25=
EXTT26=
PLAYORDER=
